PathFileType	4	(X/Y/Z)	C:/Users/opensim2020/Desktop/walking_exp_matlab/subject03_walking08_straight_01.trc	
DataRate	CameraRate	NumFrames	NumMarkers	Units	OrigDataRate	OrigDataStartFrame	OrigNumFrames	
100.00	100.00	4	51	mm	100.00	539	451	
Frame#	Time	LFHD			RFHD			LBHD			RBHD			C7			T10			CLAV			STRN			RBAK			LSHO			LUPA			LELB			LFRM			LWRA			LWRB			LFIN			RSHO			RUPA			RELB			RFRM			RWRA			RWRB			RFIN			LASI			RASI			LPSI			RPSI			LTHI			LKNE			LTIB			LANK			LHEE			LTOE			RTHI			RKNE			RTIB			RANK			RHEE			RTOE			*39			*40			*41			*42			*43			*44			*45			*46			*47			*48			*49			*50			
		X1	Y1	Z1	X2	Y2	Z2	X3	Y3	Z3	X4	Y4	Z4	X5	Y5	Z5	X6	Y6	Z6	X7	Y7	Z7	X8	Y8	Z8	X9	Y9	Z9	X10	Y10	Z10	X11	Y11	Z11	X12	Y12	Z12	X13	Y13	Z13	X14	Y14	Z14	X15	Y15	Z15	X16	Y16	Z16	X17	Y17	Z17	X18	Y18	Z18	X19	Y19	Z19	X20	Y20	Z20	X21	Y21	Z21	X22	Y22	Z22	X23	Y23	Z23	X24	Y24	Z24	X25	Y25	Z25	X26	Y26	Z26	X27	Y27	Z27	X28	Y28	Z28	X29	Y29	Z29	X30	Y30	Z30	X31	Y31	Z31	X32	Y32	Z32	X33	Y33	Z33	X34	Y34	Z34	X35	Y35	Z35	X36	Y36	Z36	X37	Y37	Z37	X38	Y38	Z38	X39	Y39	Z39	X40	Y40	Z40	X41	Y41	Z41	X42	Y42	Z42	X43	Y43	Z43	X44	Y44	Z44	X45	Y45	Z45	X46	Y46	Z46	X47	Y47	Z47	X48	Y48	Z48	X49	Y49	Z49	X50	Y50	Z50	X51	Y51	Z51	

57	0.560	-1022.31635	-1039.29260	1620.52051	-889.93793	-1053.00330	1621.97217	-1031.88696	-1168.01013	1580.28650	-900.96014	-1177.11768	1581.21143	-970.11224	-1211.55322	1422.86609	-975.26660	-1262.94312	1113.17249	-977.66296	-1094.22424	1340.12512	-992.27197	-1060.37512	1173.01257	-874.15112	-1266.05017	1246.42932	-1129.19409	-1143.06079	1386.03723	-1205.34863	-1147.86951	1191.46655	-1218.88428	-1132.31323	1069.79431	-1219.83997	-1086.42798	947.99390	-1189.85156	-1045.44470	836.05054	-1239.24988	-1072.16663	836.14618	-1229.08252	-1040.55823	757.41156	-816.27179	-1129.39197	1360.61572	-746.48816	-1092.63501	1142.82397	-734.76965	-1051.86340	1037.45862	-732.96442	-1008.28229	907.67865	-769.83392	-964.06470	818.72528	-722.37994	-987.85687	809.92426	-733.14557	-952.91174	744.49115	-1104.99707	-1121.43982	939.17932	-870.43848	-1098.79688	937.59540	-1045.74451	-1276.49414	968.11530	-897.05640	-1259.95435	980.83838	-1168.57190	-1136.75513	642.36279	-1151.55042	-1095.79565	466.10703	-1149.07739	-1202.22754	300.55618	-1109.30396	-1293.06677	111.44432	-1067.85083	-1340.40161	87.19155	-1102.29492	-1164.18506	39.45164	-831.98749	-1167.25330	648.36450	-871.02087	-1162.65283	468.15881	-870.17047	-1206.70752	283.78482	-923.86572	-1224.23486	67.73627	-974.18555	-1267.44690	35.32824	-947.15637	-1080.54126	31.17418																																				 
58	0.570	-1022.63696	-1035.51624	1620.63831	-890.24103	-1049.08374	1622.23779	-1031.93164	-1164.24670	1580.17554	-900.80890	-1173.40979	1581.40332	-969.63623	-1207.46509	1422.90112	-974.59967	-1258.82800	1113.19800	-977.42548	-1090.23792	1340.13245	-992.15277	-1056.14160	1173.01355	-873.15527	-1261.47363	1246.65320	-1128.92590	-1139.61426	1385.87781	-1205.53564	-1145.44312	1191.42468	-1219.72351	-1130.30701	1069.76990	-1221.69238	-1084.74951	947.98682	-1192.40393	-1043.77539	835.89063	-1241.42578	-1070.94055	836.11072	-1231.90710	-1039.27527	757.38599	-816.14044	-1124.49512	1360.90417	-745.85803	-1086.64856	1143.57642	-734.19043	-1044.70874	1038.64905	-732.93695	-999.05231	909.59229	-770.21838	-953.04871	821.81970	-722.86591	-977.05597	812.13159	-733.84125	-940.79425	747.64270	-1105.33752	-1115.85657	940.26404	-870.16504	-1094.69055	937.36481	-1045.51111	-1272.38635	968.19489	-896.78760	-1255.93164	980.66992	-1168.16821	-1130.02734	643.79730	-1151.11218	-1086.20227	468.09583	-1148.32764	-1189.34985	298.92041	-1109.05127	-1274.50549	107.08428	-1067.61304	-1321.43738	81.37391	-1101.92200	-1143.53394	38.99013	-832.06061	-1164.23425	648.13196	-871.05164	-1160.62366	467.98520	-870.22028	-1205.60449	283.80182	-923.80255	-1224.35596	67.92672	-974.27368	-1267.41138	35.44721	-947.08752	-1080.53271	31.12151																																				 
59	0.580	-1023.02631	-1031.74011	1620.64453	-890.59149	-1045.12732	1622.51318	-1032.06165	-1160.42041	1580.03040	-900.87421	-1169.52722	1581.54956	-969.25159	-1203.39050	1422.84729	-974.05798	-1254.66162	1113.18323	-977.26276	-1086.15161	1340.15015	-991.75336	-1052.14417	1173.06897	-872.26471	-1256.88147	1246.80835	-1128.75854	-1136.13647	1385.64917	-1205.85144	-1142.89160	1191.30835	-1220.78235	-1128.26038	1069.84509	-1223.23901	-1083.05115	947.90271	-1194.82715	-1042.10229	835.60760	-1243.66724	-1069.65723	836.06567	-1234.75757	-1038.05334	757.27063	-815.93146	-1119.81506	1361.25684	-745.37671	-1080.65039	1144.30078	-733.58496	-1037.85889	1039.79248	-733.09424	-989.96222	911.45276	-770.68793	-942.60706	824.89105	-723.66541	-966.47797	814.34052	-734.70593	-928.95551	750.75122	-1105.07092	-1111.62109	940.64227	-870.02887	-1090.44373	937.13293	-1045.39429	-1268.21350	968.22699	-896.59625	-1251.92468	980.48151	-1167.29004	-1122.26978	644.07233	-1149.81580	-1078.01721	469.11343	-1147.56885	-1176.60449	297.28055	-1108.71021	-1255.47522	102.66985	-1067.48193	-1302.09387	75.57770	-1101.38257	-1122.66626	38.72728	-832.08160	-1161.26746	647.93365	-871.02228	-1158.57214	467.82251	-870.30670	-1204.49695	283.85117	-924.04694	-1224.29675	68.04240	-974.11041	-1267.21631	35.74488	-947.03973	-1080.46509	31.08053																																				 
60	0.590	-1023.49963	-1027.93054	1620.69800	-891.00714	-1041.14844	1622.74316	-1032.22717	-1156.57104	1579.81921	-901.03650	-1165.49805	1581.58484	-968.89563	-1199.15149	1422.76099	-973.63239	-1250.53406	1113.26025	-977.34113	-1081.96448	1340.20288	-991.60114	-1048.01990	1173.03113	-871.43701	-1252.31396	1246.94324	-1128.66418	-1132.58704	1385.39221	-1206.12244	-1140.28394	1191.14331	-1221.52759	-1125.99670	1069.70459	-1224.92273	-1081.25220	947.73737	-1197.17554	-1040.58972	835.16736	-1245.82788	-1068.35510	835.92371	-1237.47144	-1036.82715	757.07611	-815.86279	-1115.02759	1361.50769	-744.88293	-1074.77942	1144.93860	-733.03430	-1031.17700	1040.82751	-733.19989	-981.31525	913.28943	-771.27063	-932.42737	827.74976	-724.54254	-956.20520	816.45172	-735.77570	-917.40216	753.75378	-1104.82813	-1107.38867	940.96777	-869.43677	-1086.75452	936.98413	-1045.30518	-1264.10620	968.21240	-896.48151	-1247.88220	980.28497	-1167.02002	-1115.64746	645.01556	-1148.54004	-1070.00940	470.12994	-1146.80493	-1163.76404	295.63083	-1108.63586	-1236.88123	98.50685	-1067.42639	-1282.41968	69.92844	-1100.88330	-1102.00659	38.61169	-832.10406	-1158.31030	647.76453	-871.07849	-1156.50208	467.67017	-870.37878	-1203.42700	283.92502	-924.18860	-1223.98071	68.05867	-974.17804	-1267.20374	36.00354	-947.00372	-1080.40503	31.05753																																				 
